<?xml version="1.0" encoding="UTF-8"?>
<svg version="1.1" xmlns="http://www.w3.org/2000/svg" width="64" height="64">
<path d="M0 0 C21.12 0 42.24 0 64 0 C64 21.12 64 42.24 64 64 C42.88 64 21.76 64 0 64 C0 42.88 0 21.76 0 0 Z " fill="#32487F" transform="translate(0,0)"/>
<path d="M0 0 C2.64 0 5.28 0 8 0 C8.03738281 1.02480469 8.07476562 2.04960937 8.11328125 3.10546875 C8.17897079 4.46618062 8.24541709 5.82685611 8.3125 7.1875 C8.33505859 7.86103516 8.35761719 8.53457031 8.38085938 9.22851562 C8.61448938 13.58252935 9.23715323 16.5802526 12 20 C15.45421315 21.16025399 15.45421315 21.16025399 19 21 C21.08265991 19.47440414 21.88183778 18.54464042 22.43237305 16.00708008 C22.47164917 14.89949341 22.47164917 14.89949341 22.51171875 13.76953125 C22.54716797 12.96708984 22.58261719 12.16464844 22.61914062 11.33789062 C22.64169922 10.50451172 22.66425781 9.67113281 22.6875 8.8125 C22.72166016 7.96751953 22.75582031 7.12253906 22.79101562 6.25195312 C22.87341471 4.16843351 22.93838645 2.08423784 23 0 C25.97 0 28.94 0 32 0 C32.10867663 3.02181414 32.18762754 6.03966327 32.25 9.0625 C32.30027344 10.33383789 32.30027344 10.33383789 32.3515625 11.63085938 C32.444638 17.65749818 31.53239817 21.07874151 28 26 C23.01310087 29.96916462 18.92133361 30.64794362 12.5859375 30.37890625 C8.79205606 29.82300519 6.76973362 28.63462466 4 26 C-0.07549773 20.23936933 -0.52491682 16.01472353 -0.25 9.0625 C-0.23195313 8.18787109 -0.21390625 7.31324219 -0.1953125 6.41210938 C-0.14858353 4.27425892 -0.07685441 2.13697955 0 0 Z " fill="#EAECF2" transform="translate(16,27)"/>
<path d="M0 0 C2.99380345 1.99586897 4.63808488 3.38259171 5.44140625 6.97265625 C5.64808593 10.53954757 5.30903079 12.59825998 3.125 15.4375 C-0.69508836 18.2463885 -3.24163979 18.48390104 -8 18 C-11.09242064 15.9603183 -12.67421425 14.48854954 -13.48046875 10.8046875 C-13.72734602 6.76123824 -13.5333075 4.68330023 -11 1.4375 C-7.15536004 -0.40472331 -4.18181888 -0.95271277 0 0 Z " fill="#F0F2F6" transform="translate(48,7)"/>
<path d="M0 0 C4.6 2.2 4.6 2.2 6 5 C6.68571429 11.97142857 6.68571429 11.97142857 4 16 C0.67112371 18.21925086 -1.13936508 18.75890933 -5.0625 18.4765625 C-8.61497432 17.60276841 -10.01078114 15.9838283 -12 13 C-12.69824523 10.16123251 -12.70378755 7.83803758 -12 5 C-8.60369897 0.05992578 -5.86842367 -0.83834624 0 0 Z " fill="#F1F3F6" transform="translate(23,7)"/>
<path d="M0 0 C1.875 0.3125 1.875 0.3125 3.875 1.375 C4.875 3.3125 4.875 3.3125 4.875 10.3125 C0.255 10.3125 -4.365 10.3125 -9.125 10.3125 C-9.125 4.3125 -9.125 4.3125 -8.125 1.9375 C-5.41467961 -0.26463531 -3.41616834 -0.20095108 0 0 Z " fill="#44588B" transform="translate(22.125,8.6875)"/>
<path d="M0 0 C4.49535963 1.57337587 4.49535963 1.57337587 6.5 3.875 C6.84290155 6.62909818 6.6831821 9.08147293 6.5 11.875 C4.52 11.215 2.54 10.555 0.5 9.875 C0.83 7.565 1.16 5.255 1.5 2.875 C0.18 2.875 -1.14 2.875 -2.5 2.875 C-2.83 4.525 -3.16 6.175 -3.5 7.875 C-2.51 8.205 -1.52 8.535 -0.5 8.875 C-2.83214148 10.08128008 -4.99642139 11.0404738 -7.5 11.875 C-8.45651196 9.29241772 -8.53620881 8.0099601 -7.8125 5.3125 C-5.87685793 1.71773615 -4.24312875 -0.21215644 0 0 Z " fill="#465B8D" transform="translate(44.5,8.125)"/>
<path d="M0 0 C2.875 1.3125 2.875 1.3125 5 3 C6.15941038 6.47823115 5.70820884 8.45895578 5 12 C4.67 12 4.34 12 4 12 C3.87625 10.88625 3.7525 9.7725 3.625 8.625 C3.3534187 4.96896323 3.3534187 4.96896323 1 3 C-0.90821061 2.64486621 -0.90821061 2.64486621 -3 2.6875 C-4.051875 2.66236328 -4.051875 2.66236328 -5.125 2.63671875 C-5.74375 2.75660156 -6.3625 2.87648438 -7 3 C-9.12508244 6.18762365 -9.5020163 8.26512223 -10 12 C-9.34 12.33 -8.68 12.66 -8 13 C-8.99 13.33 -9.98 13.66 -11 14 C-12 13 -12 13 -12.375 9.25 C-12.31912628 5.79824548 -12.00721115 5.01048895 -9.9375 2 C-6.25125882 -0.50978123 -4.38261849 -0.62608836 0 0 Z " fill="#C6CCDC" transform="translate(23,7)"/>
<path d="M0 0 C3.0625 2.125 3.0625 2.125 5 5 C4.8125 8.3125 4.8125 8.3125 4 11 C3.67 11 3.34 11 3 11 C2.5978125 9.329375 2.5978125 9.329375 2.1875 7.625 C1.34190981 3.78159049 1.34190981 3.78159049 -2 2 C-6.50850182 2.34445598 -6.50850182 2.34445598 -10 5 C-10.165 6.175625 -10.33 7.35125 -10.5 8.5625 C-10.665 9.696875 -10.83 10.83125 -11 12 C-11.99 12.495 -11.99 12.495 -13 13 C-13.77046549 4.98715891 -13.77046549 4.98715891 -11 1.4375 C-7.16336001 -0.40088999 -4.1735127 -0.96570213 0 0 Z " fill="#DCE0E9" transform="translate(48,7)"/>
<path d="M0 0 C1.32 0.66 2.64 1.32 4 2 C4 4.64 4 7.28 4 10 C2.02 9.34 0.04 8.68 -2 8 C-1.34 5.36 -0.68 2.72 0 0 Z " fill="#3E5488" transform="translate(47,10)"/>
<path d="M0 0 C1.67542976 0.28604898 3.34385343 0.61781233 5 1 C5 2.65 5 4.3 5 6 C1.25 7.125 1.25 7.125 -1 6 C-1.042721 4.33388095 -1.04063832 2.66617115 -1 1 C-0.67 0.67 -0.34 0.34 0 0 Z " fill="#F0F1F5" transform="translate(18,10)"/>
<path d="M0 0 C0.99 0.33 1.98 0.66 3 1 C3 3.31 3 5.62 3 8 C1.35 8.33 -0.3 8.66 -2 9 C-2.25 3.375 -2.25 3.375 0 0 Z " fill="#324980" transform="translate(15,10)"/>
<path d="M0 0 C0.99 0.33 1.98 0.66 3 1 C2.01 2.485 2.01 2.485 1 4 C1.99 4 2.98 4 4 4 C3.75 6.375 3.75 6.375 3 9 C0.9375 10.3125 0.9375 10.3125 -1 11 C-0.34 9.68 0.32 8.36 1 7 C0.01 6.67 -0.98 6.34 -2 6 C-1.49396008 3.83125748 -1.00016187 2.00032373 0 0 Z " fill="#DBDEE8" transform="translate(31,25)"/>
<path d="M0 0 C0.66 0.33 1.32 0.66 2 1 C1.2884375 1.804375 1.2884375 1.804375 0.5625 2.625 C-1.28186076 5.42842836 -1.62456847 7.69620258 -2 11 C-1.34 11.33 -0.68 11.66 0 12 C-0.99 12.33 -1.98 12.66 -3 13 C-4 12 -4 12 -4.3125 8.1875 C-4.29463537 4.87063448 -4.17180376 4.2147547 -2 1.5 C-1.34 1.005 -0.68 0.51 0 0 Z " fill="#D7DBE6" transform="translate(15,8)"/>
<path d="M0 0 C-0.4640625 0.7734375 -0.4640625 0.7734375 -0.9375 1.5625 C-2.18828017 4.1293925 -2.18828017 4.1293925 -2.5 7.6875 C-2.665 8.780625 -2.83 9.87375 -3 11 C-3.99 11.495 -3.99 11.495 -5 12 C-5.08131463 10.56344146 -5.13933559 9.1255517 -5.1875 7.6875 C-5.22230469 6.88699219 -5.25710937 6.08648437 -5.29296875 5.26171875 C-5 3 -5 3 -3.61328125 1.20703125 C-2 0 -2 0 0 0 Z " fill="#D3D8E4" transform="translate(40,8)"/>
</svg>
