<?xml version="1.0" encoding="UTF-8"?>
<svg version="1.1" xmlns="http://www.w3.org/2000/svg" width="500" height="500">
<path d="M0 0 C0.64633392 -0.00365067 1.29266785 -0.00730133 1.95858765 -0.01106262 C4.07740234 -0.01911399 6.19543915 -0.00560581 8.31420898 0.0090332 C9.79581197 0.0095524 11.27741564 0.00903239 12.75901794 0.00752258 C15.85654044 0.00761206 18.95380134 0.01799206 22.05126953 0.03613281 C26.01458205 0.05883908 29.97751345 0.05935786 33.94087315 0.05261517 C36.99756741 0.04926859 40.05417533 0.0559179 43.1108532 0.0657444 C44.57203659 0.06958332 46.03322962 0.07075006 47.49441719 0.06915855 C49.53812997 0.06878628 51.58136001 0.08145209 53.625 0.09765625 C54.78604752 0.10226364 55.94709503 0.10687103 57.14332581 0.11161804 C61.20368748 0.45258425 64.02135962 1.07136275 66.86666298 4.08952332 C68.6054415 6.96343104 68.62153587 8.78116808 68.61961365 12.12980652 C68.62637115 13.30554733 68.63312866 14.48128815 68.64009094 15.69265747 C68.63237167 16.97937347 68.6246524 18.26608948 68.61669922 19.59179688 C68.61916798 20.96380412 68.62300716 22.33580948 68.62811279 23.70780945 C68.63645172 26.66308555 68.63564182 29.61816896 68.62792778 32.57344627 C68.61631899 37.26221441 68.62853329 41.95073642 68.64454651 46.63948059 C68.68071459 58.29709367 68.68698622 69.95470161 68.68444824 81.61236572 C68.68272928 90.65260036 68.69011102 99.69263292 68.72442681 108.73281175 C68.73836069 112.62176502 68.74445941 116.51037986 68.73138237 120.39934349 C68.65087545 145.5636782 69.54228886 168.55442907 87.24780273 188.37231445 C87.85237305 189.0580957 88.45694336 189.74387695 89.07983398 190.45043945 C101.51969683 203.72638269 119.28295872 211.00701891 137.24780273 212.37231445 C146.50363888 212.65785784 155.50709009 211.46259599 164.24780273 208.37231445 C165.22233398 208.03329102 166.19686523 207.69426758 167.20092773 207.3449707 C174.80228353 204.4506083 180.95180011 200.48666263 187.24780273 195.37231445 C188.12694336 194.65817383 189.00608398 193.9440332 189.91186523 193.20825195 C204.07040811 181.10291167 210.63824078 165.52838122 213.24780273 147.37231445 C213.61999142 142.50951922 213.64664647 137.68072659 213.61669922 132.80541992 C213.61917614 131.42217208 213.6230235 130.03892613 213.62811279 128.65568542 C213.63635612 125.71258072 213.63572588 122.76967015 213.62792778 119.82656479 C213.61621574 115.16961674 213.62860966 110.51291193 213.64454651 105.85598755 C213.68050556 94.30518991 213.6869635 82.7544009 213.68444824 71.20355225 C213.6827365 62.19106461 213.68982959 53.17877941 213.72442681 44.16634858 C213.7411942 39.5387049 213.73945262 34.91155681 213.72360408 30.28391528 C213.71780878 27.41120277 213.72854161 24.53872589 213.74385071 21.66605568 C213.74935099 19.70263975 213.73496746 17.7391996 213.71998596 15.77583313 C213.73435196 14.01844566 213.73435196 14.01844566 213.74900818 12.22555542 C213.74879889 11.20986418 213.74858961 10.19417294 213.74837399 9.14770317 C214.38204621 5.6263065 215.80326406 3.93458117 218.24780273 1.37231445 C221.56602596 -0.07306091 225.19467735 0.23213061 228.77294922 0.21118164 C229.41899109 0.20621674 230.06503296 0.20125183 230.73065186 0.19613647 C232.8600777 0.18157462 234.98942911 0.17472382 237.11889648 0.16918945 C238.60335796 0.16343422 240.08781943 0.15767654 241.57228088 0.1519165 C244.68165431 0.14142433 247.791002 0.13556963 250.90039062 0.13208008 C254.87949288 0.1265911 258.8582537 0.10254726 262.8372488 0.07410812 C265.90250131 0.05546405 268.96767173 0.05027527 272.03297615 0.0487442 C273.49976536 0.04572245 274.9665533 0.03770999 276.43328667 0.02455902 C278.48687497 0.00745644 280.53963061 0.00938809 282.59326172 0.01586914 C283.76034164 0.01222351 284.92742157 0.00857788 286.12986755 0.00482178 C290.56316042 0.52734793 293.13525268 2.2597644 296.24780273 5.37231445 C297.3210389 8.48924548 297.37346839 11.42087348 297.37478638 14.69874573 C297.3776062 15.77904053 297.38042603 16.85933533 297.3833313 17.97236633 C297.38029495 19.74344002 297.38029495 19.74344002 297.37719727 21.55029297 C297.37982574 23.4219664 297.37982574 23.4219664 297.38250732 25.33145142 C297.38615747 28.75595603 297.38529559 32.1804003 297.38212824 35.60490155 C297.3795896 39.20616055 297.38194713 42.80741704 297.3835144 46.40867615 C297.38533522 52.47232523 297.38293576 58.53596214 297.37817383 64.59960938 C297.37276817 71.56232524 297.37446706 78.52501164 297.38000023 85.48772675 C297.38457819 91.49315277 297.38515818 97.49857005 297.38256156 103.50399727 C297.38101953 107.07768256 297.38074622 110.65135417 297.38409805 114.22503853 C297.41821801 156.45595702 297.41821801 156.45595702 294.56030273 169.43481445 C294.38515137 170.25731689 294.21 171.07981934 294.02954102 171.92724609 C285.21788763 211.51137894 261.85938609 247.62530905 227.62280273 269.87231445 C225.18502824 271.40777844 222.72309829 272.89822624 220.24780273 274.37231445 C219.62196289 274.74888184 218.99612305 275.12544922 218.35131836 275.51342773 C184.03139947 295.83991155 140.79116139 301.20751632 102.24780273 291.37231445 C96.12052658 289.69774955 90.17486601 287.64813135 84.24780273 285.37231445 C83.0631543 284.93274414 81.87850586 284.49317383 80.65795898 284.0402832 C61.70613061 276.50731133 45.94467511 264.24762253 31.24780273 250.37231445 C30.0528418 249.25856445 30.0528418 249.25856445 28.83374023 248.12231445 C4.83887354 225.06011042 -9.40633636 192.39018662 -13.46698284 159.66204453 C-13.72463178 157.59361291 -13.99979833 155.52738171 -14.27705383 153.46148682 C-14.96567309 147.17685675 -14.89971652 140.89383878 -14.89746094 134.57836914 C-14.90045847 133.20586049 -14.90386236 131.83335268 -14.90763855 130.46084595 C-14.91641619 126.75867735 -14.91881384 123.05653191 -14.91945434 119.3543539 C-14.92016768 117.03877716 -14.92230724 114.72320622 -14.92495155 112.40763092 C-14.93417994 104.32293832 -14.93828905 96.23826214 -14.9375 88.15356445 C-14.93689788 80.62524891 -14.94748235 73.0970047 -14.96324366 65.56870723 C-14.97631707 59.09291394 -14.98168408 52.61714401 -14.98104459 46.14133763 C-14.98078981 42.278635 -14.98363073 38.41599603 -14.99422264 34.55330658 C-15.00390181 30.92530247 -15.00398412 27.29742302 -14.99670601 23.66941452 C-14.99516221 21.70594428 -15.00350564 19.74247405 -15.012146 17.77902222 C-15.00795151 16.60717377 -15.00375702 15.43532532 -14.99943542 14.22796631 C-14.99998019 13.2118565 -15.00052496 12.19574669 -15.00108624 11.14884567 C-14.7332853 8.16133825 -14.12066726 6.0367429 -12.75219727 3.37231445 C-8.47968093 0.54414178 -5.0611525 -0.00274186 0 0 Z M3.24780273 18.37231445 C3.24780273 28.60231445 3.24780273 38.83231445 3.24780273 49.37231445 C9.92305677 49.39521849 16.59817554 49.41514709 23.2734375 49.42724609 C25.54622865 49.43228771 27.81901653 49.43912083 30.09179688 49.44775391 C33.35083825 49.45982706 36.6098369 49.46554432 39.86889648 49.4699707 C40.89180283 49.47513199 41.91470917 49.48029327 42.96861267 49.48561096 C43.90951248 49.48568649 44.85041229 49.48576202 45.81982422 49.48583984 C46.65255356 49.48806046 47.4852829 49.49028107 48.34324646 49.49256897 C50.25813547 49.58236277 50.25813547 49.58236277 51.24780273 48.37231445 C51.34776367 46.32349249 51.37861219 44.27122876 51.38061523 42.2199707 C51.3819043 40.96893555 51.38319336 39.71790039 51.38452148 38.42895508 C51.3806543 37.11088867 51.37678711 35.79282227 51.37280273 34.43481445 C51.37666992 33.12061523 51.38053711 31.80641602 51.38452148 30.45239258 C51.38258789 28.57390625 51.38258789 28.57390625 51.38061523 26.6574707 C51.37892334 24.92315796 51.37892334 24.92315796 51.37719727 23.15380859 C51.4380291 20.41512814 51.4380291 20.41512814 50.24780273 18.37231445 C34.73780273 18.37231445 19.22780273 18.37231445 3.24780273 18.37231445 Z M231.24780273 19.37231445 C231.14776984 21.50584619 231.11699226 23.64268987 231.11499023 25.77856445 C231.11370117 27.07922852 231.11241211 28.37989258 231.11108398 29.7199707 C231.11317871 30.40075684 231.11527344 31.08154297 231.11743164 31.78295898 C231.12278033 33.8635996 231.11748593 35.94402434 231.11108398 38.0246582 C231.11237305 39.32532227 231.11366211 40.62598633 231.11499023 41.96606445 C231.11611816 43.1694043 231.11724609 44.37274414 231.1184082 45.61254883 C230.93324297 48.28215928 230.93324297 48.28215928 232.24780273 49.37231445 C233.72134621 49.46535463 235.19930864 49.4897771 236.67578125 49.48583984 C237.61668106 49.48576431 238.55758087 49.48568878 239.5269928 49.48561096 C240.54989914 49.48044968 241.57280548 49.47528839 242.62670898 49.4699707 C244.18940773 49.46784828 244.18940773 49.46784828 245.78367615 49.46568298 C249.12591367 49.46006525 252.4680853 49.44750975 255.81030273 49.43481445 C258.0700674 49.42980174 260.3298331 49.42523844 262.58959961 49.42114258 C268.14238008 49.41093901 273.69501725 49.39136709 279.24780273 49.37231445 C279.24780273 39.14231445 279.24780273 28.91231445 279.24780273 18.37231445 C272.5725487 18.34941042 265.89742993 18.32948182 259.22216797 18.31738281 C256.94937682 18.3123412 254.67658894 18.30550808 252.40380859 18.296875 C249.14476722 18.28480185 245.88576857 18.27908458 242.62670898 18.2746582 C241.60380264 18.26949692 240.5808963 18.26433563 239.5269928 18.25901794 C238.58609299 18.25894241 237.64519318 18.25886688 236.67578125 18.25878906 C235.84305191 18.25656845 235.01032257 18.25434784 234.15235901 18.25205994 C232.23746999 18.16226614 232.23746999 18.16226614 231.24780273 19.37231445 Z " fill="#2F467F" transform="translate(108.752197265625,199.627685546875)"/>
<path d="M0 0 C0.72445312 0.54011719 1.44890625 1.08023437 2.1953125 1.63671875 C19.31134082 15.3919075 29.56813778 37.42603918 32.68359375 58.78515625 C35.04604484 82.78882594 29.14124643 106.86798715 13.734375 125.78125 C11.54754943 128.2507265 9.29605461 130.63232534 7 133 C6.20916016 133.90105469 6.20916016 133.90105469 5.40234375 134.8203125 C-8.85336345 150.49794446 -31.15358823 159.08896481 -51.9609375 160.3828125 C-77.56183176 161.30014887 -100.64909806 152.36457396 -119.6875 135.3125 C-134.79149234 121.24202078 -145.94401306 100.36610613 -147.140625 79.55419922 C-148.07448041 52.85060385 -142.61061374 30.3764157 -124.5625 9.75 C-90.99709647 -26.04547292 -38.69270634 -29.74300834 0 0 Z M-114.83203125 24.17578125 C-127.55049312 40.7441559 -131.52241951 59.45326818 -130 80 C-128.75690671 88.40411382 -125.82574443 96.44297396 -122 104 C-121.4225 105.175625 -120.845 106.35125 -120.25 107.5625 C-119.8375 108.366875 -119.425 109.17125 -119 110 C-118.57332031 109.6596875 -118.14664063 109.319375 -117.70703125 108.96875 C-95.97678735 92.1222104 -71.31067025 84.04700303 -43.76171875 87.46875 C-27.26736055 89.95392911 -12.64378987 97.0028477 0.08984375 107.6796875 C2.0242994 109.28429874 2.0242994 109.28429874 5 109 C15.33287365 89.23712515 18.85806506 69.8164238 13 48 C9.84122759 38.5433636 5.2600726 30.71955003 -1 23 C-1.78246094 22.01 -2.56492187 21.02 -3.37109375 20 C-15.63281123 6.00743087 -34.02976006 -2.10975748 -52.45703125 -3.3828125 C-76.77675505 -4.35256116 -98.92519428 5.79141923 -114.83203125 24.17578125 Z " fill="#30477F" transform="translate(193,25)"/>
<path d="M0 0 C1.6003606 1.35514405 3.18424947 2.73001085 4.75 4.125 C5.87148438 5.10533203 5.87148438 5.10533203 7.015625 6.10546875 C21.92782973 20.00093225 32.71891781 41.13495094 33.89013672 61.57006836 C34.83787046 88.54275924 28.8380121 111.99248655 10.4375 132.4375 C-1.91351238 145.61248841 -17.75406066 154.82457506 -35.25 159.125 C-36.09175781 159.34929687 -36.93351562 159.57359375 -37.80078125 159.8046875 C-60.11879957 164.87223132 -84.21011386 159.93244681 -103.375 147.875 C-109.54416038 143.85617017 -114.96170665 139.2510172 -120.25 134.125 C-121.16652344 133.31869141 -121.16652344 133.31869141 -122.1015625 132.49609375 C-137.92406993 118.08243972 -144.9133772 95.8996162 -146.5625 75.203125 C-147.29175374 52.50510223 -140.04378678 31.93896547 -126.25 14.125 C-125.31220703 12.91070312 -125.31220703 12.91070312 -124.35546875 11.671875 C-93.92820649 -24.9689545 -36.98504421 -28.75344241 0 0 Z M-109.25 20.125 C-122.71744897 35.81750576 -130.42654461 54.27074677 -129.25 75.125 C-127.84540377 88.10155381 -124.35789692 98.6208058 -118.25 110.125 C-114.43451064 110.125 -113.81392382 109.11350405 -111 106.625 C-92.10502746 91.17542042 -68.09385407 85.93718849 -44.07080078 88.34326172 C-25.88197954 90.86444059 -9.16976374 99.34107302 4.75 111.125 C15.8937192 96.7835179 18.39035786 78.77769134 16.75 61.125 C14.71405697 45.91393137 7.97216989 32.49665085 -2.25 21.125 C-3.02730469 20.20847656 -3.02730469 20.20847656 -3.8203125 19.2734375 C-12.68306729 9.51995359 -24.79379169 3.71842737 -37.25 0.125 C-38.07628906 -0.11992187 -38.90257812 -0.36484375 -39.75390625 -0.6171875 C-64.07566362 -6.6256081 -92.06703709 2.156335 -109.25 20.125 Z " fill="#30477F" transform="translate(420.25,23.875)"/>
<path d="M0 0 C6.87380956 7.03003251 10.68035307 15.23858196 11.125 25.0625 C10.89186627 35.07353652 6.87649193 43.80864369 -0.25 50.8125 C-7.96292494 56.85321096 -15.90155817 59.16126047 -25.625 58.8125 C-35.36748973 57.5998563 -43.53203824 52.85252705 -49.625 45.2109375 C-55.48919029 36.55561817 -56.32165296 28.14948581 -55.25 17.8125 C-53.55942368 10.05698113 -49.26785644 3.91501905 -43.25 -1.1875 C-28.18074788 -10.6008386 -14.52376907 -9.7756138 0 0 Z " fill="#2F467F" transform="translate(158.25,45.1875)"/>
<path d="M0 0 C6.97422759 7.29770753 9.7817873 14.39876994 10.10546875 24.453125 C9.7817873 34.50748006 6.97422759 41.60854247 0 48.90625 C-8.22914494 55.94062512 -17.29927222 58.55872453 -27.953125 57.76171875 C-36.67528972 56.46904223 -43.78193343 52.34830845 -49.33203125 45.515625 C-54.97326202 37.61790192 -57.22528261 29.62983996 -56.39453125 19.953125 C-54.7290276 10.96222816 -50.69961542 3.27674743 -43.45703125 -2.421875 C-29.55292761 -11.96442522 -12.83122699 -10.96829191 0 0 Z " fill="#2F467F" transform="translate(387.39453125,46.046875)"/>
<path d="M0 0 C2.60386003 1.97048867 3.77105018 3.253694 4.73046875 6.38110352 C5.04783319 9.46477048 4.58550314 10.53099921 3 13.15234375 C2.53335938 13.93077637 2.06671875 14.70920898 1.5859375 15.51123047 C-1.21403221 19.90514845 -4.07682381 24.24956591 -7 28.5625 C-11.10669189 34.64795048 -15.148769 40.74904362 -19 47 C-17.49433472 47.01401855 -17.49433472 47.01401855 -15.95825195 47.02832031 C-12.2211529 47.06830231 -8.48487002 47.13408256 -4.74829102 47.20751953 C-3.13348911 47.23568186 -1.51855057 47.25692 0.09643555 47.27099609 C2.42307237 47.29249258 4.74807477 47.33917211 7.07421875 47.390625 C7.79212082 47.39185364 8.51002289 47.39308228 9.24967957 47.39434814 C12.66056088 47.49320915 14.92481021 47.95896577 17.93286133 49.60058594 C20.72622374 52.84295818 21.08138758 54.73010909 21 59 C19.73993541 61.69925141 18.54135027 63.81140105 16.87109375 66.2265625 C16.42148788 66.90933258 15.97188202 67.59210266 15.50865173 68.29556274 C14.53360627 69.77027766 13.54946926 71.23901328 12.55731201 72.70227051 C10.97785733 75.03267031 9.42421382 77.37857724 7.87548828 79.72949219 C5.18380346 83.80431325 2.46338219 87.85883573 -0.27075195 91.90527344 C-1.96594337 94.41714635 -3.65196056 96.93502936 -5.33789062 99.453125 C-6.42132669 101.06026561 -7.50529056 102.66705055 -8.58984375 104.2734375 C-9.33982887 105.39665909 -9.33982887 105.39665909 -10.10496521 106.54257202 C-10.80698814 107.57603256 -10.80698814 107.57603256 -11.52319336 108.63037109 C-11.93049179 109.23497162 -12.33779022 109.83957214 -12.75743103 110.4624939 C-14.84575936 113.04650946 -16.61603252 113.94991728 -19.875 114.375 C-23.81601525 113.90207817 -25.321833 112.90772417 -28 110 C-29.00832368 106.52752299 -29.2727479 104.67084018 -27.89819336 101.29003906 C-27.0339978 99.9167041 -27.0339978 99.9167041 -26.15234375 98.515625 C-25.50378418 97.47341797 -24.85522461 96.43121094 -24.18701172 95.35742188 C-23.46045258 94.23669254 -22.73137757 93.11759084 -22 92 C-21.62901184 91.42741455 -21.25802368 90.8548291 -20.87579346 90.26489258 C-18.14777813 86.06400786 -15.36143229 81.90383302 -12.5625 77.75 C-11.72688489 76.50412661 -10.89159671 75.25803389 -10.05664062 74.01171875 C-8.04150586 71.005286 -6.02202298 68.00180569 -4 65 C-5.06436279 65.02618408 -6.12872559 65.05236816 -7.2253418 65.0793457 C-11.18541327 65.17004776 -15.14539351 65.22732089 -19.10620117 65.2746582 C-20.81827245 65.29975714 -22.53023704 65.33384429 -24.24194336 65.37719727 C-26.70713645 65.43805739 -29.17090985 65.46625432 -31.63671875 65.48828125 C-32.77919319 65.52699089 -32.77919319 65.52699089 -33.94474792 65.56648254 C-37.84909084 65.5685294 -39.81572366 65.13140908 -43.02270508 62.84448242 C-45 60 -45 60 -45.57470703 57.13525391 C-44.83493776 53.09952024 -43.04923542 50.18728722 -40.8046875 46.8359375 C-40.3593869 46.1486557 -39.9140863 45.4613739 -39.45529175 44.75326538 C-37.98425743 42.49261666 -36.49299811 40.24619249 -35 38 C-33.96459037 36.42258036 -32.92976783 34.84477521 -31.89550781 33.26660156 C-29.21601428 29.19279632 -26.50714409 25.1395811 -23.78417969 21.09472656 C-22.09767211 18.58432181 -20.42399497 16.06563541 -18.75 13.546875 C-17.67004736 11.93958214 -16.58934699 10.33279137 -15.5078125 8.7265625 C-15.0129837 7.97774811 -14.51815491 7.22893372 -14.0083313 6.45742798 C-13.54039154 5.76845428 -13.07245178 5.07948059 -12.59033203 4.36962891 C-12.18525421 3.76502838 -11.78017639 3.16042786 -11.36282349 2.5375061 C-7.96642361 -1.2942341 -4.75483656 -1.38682733 0 0 Z " fill="#30477F" transform="translate(262,177)"/>
</svg>
