<?xml version="1.0" encoding="UTF-8"?>
<svg version="1.1" xmlns="http://www.w3.org/2000/svg" width="1000" height="1000">
<path d="M0 0 C330 0 660 0 1000 0 C1000 330 1000 660 1000 1000 C670 1000 340 1000 0 1000 C0 670 0 340 0 0 Z " fill="#2F467F" transform="translate(0,0)"/>
<path d="M0 0 C1.10073601 -0.01226624 1.10073601 -0.01226624 2.22370911 -0.02478027 C4.64530637 -0.04953723 7.06684557 -0.06612177 9.48852539 -0.08056641 C10.73137393 -0.08855192 10.73137393 -0.08855192 11.99933052 -0.09669876 C16.38170571 -0.12338313 20.76405283 -0.14277643 25.14648438 -0.15722656 C28.77141441 -0.17058556 32.39578416 -0.19848018 36.02050781 -0.23925781 C40.40182559 -0.28854123 44.78263386 -0.31334133 49.164217 -0.32045364 C50.83200206 -0.32716829 52.49977564 -0.34239608 54.16740227 -0.36634445 C56.50152865 -0.39796283 58.83368449 -0.39803943 61.16796875 -0.390625 C62.1975621 -0.415233 62.1975621 -0.415233 63.24795532 -0.44033813 C67.04020986 -0.39109156 68.56594047 0.12596802 71.5537262 2.5418396 C74.6872301 6.50708743 74.77744327 9.3896691 74.8001709 14.30154419 C74.80851456 15.58002731 74.81685822 16.85851044 74.82545471 18.17573547 C74.82976432 19.59567236 74.83398811 21.01560951 74.83813477 22.43554688 C74.84607719 23.92875909 74.85446514 25.42196899 74.86326599 26.91517639 C74.88133152 30.13342747 74.8963446 33.35167342 74.90904236 36.5699501 C74.92927125 41.66384379 74.95692599 46.75768049 74.98571777 51.85153198 C75.04583048 62.67361822 75.09760463 73.49573904 75.14868164 84.31787109 C75.2038029 95.9806192 75.26045566 107.64334989 75.32623053 119.30604351 C75.35447841 124.363916 75.3781119 129.42178229 75.39815521 134.47969365 C75.41161157 137.63660154 75.42902066 140.79347895 75.4474659 143.95036125 C75.45517475 145.40755244 75.46126466 146.86475329 75.46555901 148.32195854 C75.49677212 163.50742132 75.49677212 163.50742132 79.33618164 178.06787109 C79.60382324 178.75768066 79.87146484 179.44749023 80.1472168 180.15820312 C88.2501046 200.54596125 102.27878838 216.26944841 122.11352539 225.84130859 C129.3792414 228.61914035 136.9923064 229.94788991 144.64868164 231.19287109 C145.73407227 231.36947266 146.81946289 231.54607422 147.93774414 231.72802734 C159.63512971 233.12978016 171.6733523 231.28536678 182.64868164 227.19287109 C183.96868164 227.19287109 185.28868164 227.19287109 186.64868164 227.19287109 C186.64868164 226.53287109 186.64868164 225.87287109 186.64868164 225.19287109 C187.32672852 224.84095703 188.00477539 224.48904297 188.70336914 224.12646484 C203.82886903 216.10282709 214.92878464 207.08272132 223.64868164 192.19287109 C224.04958008 191.57669922 224.45047852 190.96052734 224.86352539 190.32568359 C227.56477481 186.06484489 228.75743712 181.68751036 229.93774414 176.84130859 C230.64868164 174.19287109 230.64868164 174.19287109 231.67211914 171.91943359 C234.65212489 163.59925755 233.80021557 154.02501348 233.80639648 145.31323242 C233.81107307 143.82412061 233.81621801 142.33501021 233.8217926 140.84590149 C233.83301054 137.65557301 233.84147448 134.46525352 233.84791183 131.27491188 C233.85865046 126.22756662 233.87890732 121.18028695 233.90103149 116.13298035 C233.96277018 101.78619368 234.01702434 87.43941306 234.05004883 73.0925293 C234.06839595 65.15641407 234.09732346 57.220411 234.13805354 49.28437823 C234.15910324 45.09020511 234.17457812 40.89617308 234.17686081 36.70194435 C234.17900864 32.76113337 234.19489143 28.8206173 234.22125053 24.87989616 C234.2284369 23.43596142 234.2305477 21.99199092 234.22714806 20.5480423 C234.22324215 18.57345548 234.23949343 16.59885973 234.25668335 14.62434387 C234.2599935 13.52066373 234.26330364 12.41698359 234.2667141 11.27985859 C234.77825271 7.14570287 236.01977587 3.4735189 239.37197876 0.8380127 C242.60058158 -0.07686558 245.74715095 -0.11870477 249.07592773 -0.12939453 C249.81789902 -0.13932434 250.5598703 -0.14925415 251.32432556 -0.15948486 C253.7736281 -0.18864342 256.22267171 -0.20231649 258.67211914 -0.21337891 C260.37838749 -0.22488786 262.0846558 -0.23640325 263.79092407 -0.2479248 C267.36689455 -0.26891997 270.94277542 -0.28062176 274.51879883 -0.28759766 C279.09454751 -0.29856946 283.66910652 -0.34663562 288.24448204 -0.40354156 C291.7687422 -0.44084125 295.29271689 -0.45120782 298.81715775 -0.45426941 C300.50366351 -0.46031207 302.19016486 -0.47633472 303.87647629 -0.50263977 C306.23944708 -0.53687247 308.5995263 -0.53298064 310.96264648 -0.52001953 C312.00087303 -0.54766388 312.00087303 -0.54766388 313.06007385 -0.5758667 C316.65555691 -0.51428886 319.27732776 0.19225983 322.08450317 2.36953735 C326.39022095 7.30038613 325.4499342 13.9109084 325.36157227 20.07910156 C325.36315553 21.4991608 325.36735471 22.91921917 325.3739624 24.33926392 C325.38421856 28.1920514 325.35716475 32.04376729 325.3229084 35.89638281 C325.29269492 39.95303957 325.29518024 44.00968632 325.2935791 48.06643677 C325.28619253 54.89766504 325.25629041 61.72849175 325.21118164 68.55957031 C325.15387636 77.25382612 325.13276978 85.94775524 325.12381744 94.64217949 C325.11576268 102.18436479 325.09074474 109.72648263 325.0631237 117.26861811 C325.05503131 119.65565871 325.0491264 122.0426971 325.04353333 124.42974472 C324.872138 186.96941474 324.872138 186.96941474 319.64868164 192.19287109 C319.34794849 193.8335044 319.08372193 195.48087364 318.83618164 197.13037109 C317.82568633 202.89613847 315.97323696 207.84720382 313.64868164 213.19287109 C313.2890332 214.10552734 312.92938477 215.01818359 312.55883789 215.95849609 C302.60599146 241.02492415 286.44969628 263.94873991 265.64868164 281.19287109 C265.13563477 281.65564453 264.62258789 282.11841797 264.09399414 282.59521484 C255.28375178 290.50690015 238.87488309 305.19287109 226.64868164 305.19287109 C226.64868164 305.85287109 226.64868164 306.51287109 226.64868164 307.19287109 C225.32868164 307.19287109 224.00868164 307.19287109 222.64868164 307.19287109 C222.64868164 307.85287109 222.64868164 308.51287109 222.64868164 309.19287109 C219.78616339 310.14704384 216.9233625 311.10019895 214.05883789 312.04833984 C211.93517272 312.76109345 209.81679197 313.49005346 207.70727539 314.24365234 C199.8133943 317.02530568 191.87558017 318.70598377 183.64868164 320.19287109 C182.89095459 320.36423584 182.13322754 320.53560059 181.35253906 320.7121582 C172.63515602 322.56721996 163.95229288 322.54795612 155.08618164 322.50537109 C154.282995 322.50321594 153.47980835 322.50106079 152.65228271 322.49884033 C141.0485002 322.44877788 129.94328469 322.05413653 118.64868164 319.19287109 C117.78678223 318.98887695 116.92488281 318.78488281 116.03686523 318.57470703 C104.63217443 315.85562927 93.91294854 312.62392991 83.51000977 307.16552734 C81.5015268 306.11597381 79.47504731 305.10740308 77.44555664 304.09912109 C48.00506776 289.25487145 24.6502939 266.33707846 7.64868164 238.19287109 C6.98868164 237.20287109 6.32868164 236.21287109 5.64868164 235.19287109 C5.64868164 234.20287109 5.64868164 233.21287109 5.64868164 232.19287109 C4.98868164 232.19287109 4.32868164 232.19287109 3.64868164 232.19287109 C3.64868164 230.87287109 3.64868164 229.55287109 3.64868164 228.19287109 C2.98868164 228.19287109 2.32868164 228.19287109 1.64868164 228.19287109 C0.31534831 224.85953776 -1.01798503 221.52620443 -2.35131836 218.19287109 C-2.65674561 217.45286865 -2.96217285 216.71286621 -3.27685547 215.95043945 C-5.62443159 210.20887181 -7.66576836 204.45627985 -9.41381836 198.50537109 C-9.77830078 197.3597168 -9.77830078 197.3597168 -10.15014648 196.19091797 C-16.40440101 174.87336607 -15.8182265 152.34414961 -15.78722644 130.35553241 C-15.78409373 126.91523446 -15.79026947 123.47497601 -15.79626518 120.03468376 C-15.81018817 111.92632653 -15.80884391 103.81807502 -15.79736328 95.7097168 C-15.78580932 87.36533719 -15.80010654 79.02127628 -15.82675976 70.67693847 C-15.84890713 63.47132222 -15.8555588 56.26580618 -15.84968334 49.06015831 C-15.84632046 44.77336407 -15.84868817 40.48677558 -15.86593437 36.2000103 C-15.88139323 32.18510681 -15.87746037 28.17068062 -15.85862923 24.15579605 C-15.85494479 22.6860329 -15.85804767 21.21623432 -15.86851501 19.74650383 C-15.88172975 17.73769076 -15.86776634 15.72875415 -15.8525238 13.71995544 C-15.85231452 12.59758704 -15.85210524 11.47521864 -15.85188961 10.31883907 C-15.2325393 6.45111946 -13.7539789 4.24846522 -11.35131836 1.19287109 C-7.91950662 -0.46107821 -3.76783601 0.02331541 0 0 Z " fill="#FDFEFE" transform="translate(345.351318359375,447.80712890625)"/>
<path d="M0 0 C0 0.66 0 1.32 0 2 C1.32 2 2.64 2 4 2 C4 2.66 4 3.32 4 4 C4.72058594 4.10570312 5.44117188 4.21140625 6.18359375 4.3203125 C16.42243221 6.79126658 24.69429829 15.81472194 32 23 C33.19109375 24.13695312 33.19109375 24.13695312 34.40625 25.296875 C50.84735525 42.08532755 59.34129929 66.95265428 59.4375 90.125 C59.13033649 117.83210868 48.63353252 141.68286722 29.75 161.6875 C17.7596618 173.17209458 3.11807566 181.89769831 -13 186 C-14.09441406 186.33 -15.18882812 186.66 -16.31640625 187 C-39.80012998 193.37522086 -65.48203711 188.87957578 -86.8125 177.625 C-106.07376516 166.14161715 -118.41959356 151.3526141 -129 132 C-129.53496094 131.18015625 -130.06992187 130.3603125 -130.62109375 129.515625 C-132.28896524 126.47282262 -132.92646401 123.64288908 -133.625 120.25 C-134.15143764 116.30917601 -134.15143764 116.30917601 -136 113 C-139.27795943 90.43711134 -137.55933947 70.39834867 -129 49 C-128.34 49 -127.68 49 -127 49 C-126.88785156 48.27167969 -126.77570313 47.54335938 -126.66015625 46.79296875 C-122.59134212 29.57875512 -104.30193452 15.53646549 -90.26074219 6.37890625 C-62.24904831 -10.706412 -30.25209014 -10.20490027 0 0 Z " fill="#FCFDFD" transform="translate(414,241)"/>
<path d="M0 0 C2.22332431 1.69794973 4.38392446 3.44939226 6.53125 5.2421875 C7.20800781 5.78488281 7.88476562 6.32757813 8.58203125 6.88671875 C18.0307554 14.72090362 24.43292171 24.70253772 30.53125 35.2421875 C30.95535156 35.974375 31.37945313 36.7065625 31.81640625 37.4609375 C34.32310572 42.11215173 35.65723377 46.89911599 36.91796875 52.01953125 C37.32221192 54.19766827 37.32221192 54.19766827 38.53125 55.2421875 C40.59134227 62.54798281 40.88270669 69.82179939 40.84375 77.3671875 C40.84028564 78.46232666 40.83682129 79.55746582 40.83325195 80.68579102 C40.71577469 89.50697081 39.78365664 97.70528826 37.53125 106.2421875 C37.32991455 107.00998535 37.1285791 107.7777832 36.92114258 108.56884766 C35.21495175 114.69263162 32.8498939 120.1503917 29.84375 125.7421875 C29.39950684 126.57242432 28.95526367 127.40266113 28.49755859 128.25805664 C25.08691054 134.49377862 21.41285436 140.04676571 16.53125 145.2421875 C16.08523438 145.72236328 15.63921875 146.20253906 15.1796875 146.69726562 C-4.30215594 167.50741657 -29.05892237 178.25138212 -57.46875 179.2421875 C-73.76033947 179.15316242 -90.09535869 174.83133811 -104.46875 167.2421875 C-104.46875 166.5821875 -104.46875 165.9221875 -104.46875 165.2421875 C-105.78875 165.2421875 -107.10875 165.2421875 -108.46875 165.2421875 C-108.46875 164.5821875 -108.46875 163.9221875 -108.46875 163.2421875 C-109.14292969 163.025625 -109.81710937 162.8090625 -110.51171875 162.5859375 C-114.39582548 160.82090089 -117.45874469 158.39061089 -120.78125 155.7421875 C-121.42642578 155.24332031 -122.07160156 154.74445313 -122.73632812 154.23046875 C-124.35555307 152.95222345 -125.91764612 151.60228941 -127.46875 150.2421875 C-127.46875 149.5821875 -127.46875 148.9221875 -127.46875 148.2421875 C-128.12875 148.2421875 -128.78875 148.2421875 -129.46875 148.2421875 C-140.89613915 136.02752069 -149.63783964 119.73589626 -152.99609375 103.3671875 C-153.26337199 101.26866175 -153.26337199 101.26866175 -154.46875 100.2421875 C-157.83201377 79.14315145 -155.90516924 57.51151418 -146.46875 38.2421875 C-145.97761719 37.20964844 -145.48648438 36.17710937 -144.98046875 35.11328125 C-133.22198696 11.79276008 -114.3036437 -2.60650263 -90.46875 -12.7578125 C-89.37626953 -13.23541016 -89.37626953 -13.23541016 -88.26171875 -13.72265625 C-60.22159223 -25.20140458 -23.8869948 -17.00814503 0 0 Z " fill="#FDFDFD" transform="translate(682.46875,251.7578125)"/>
<path d="M0 0 C0 0.66 0 1.32 0 2 C1.32 2 2.64 2 4 2 C4.495 2.99 4.495 2.99 5 4 C6.093125 4.474375 7.18625 4.94875 8.3125 5.4375 C22.77507421 12.42211843 35.47746851 29.12817959 40.67285156 43.91503906 C47.27071718 64.98429297 47.64264418 87.95410267 38.015625 108.125 C36.51614517 110.89327046 34.83591928 113.44282672 33 116 C28.8741588 115.47710693 27.00028839 114.3866351 24 111.5625 C10.03072681 99.93889188 -9.93489539 92.50363322 -28 92 C-29.25941406 91.96003906 -30.51882813 91.92007813 -31.81640625 91.87890625 C-56.1087172 91.35991539 -78.83216231 98.07719378 -97.0546875 114.6015625 C-99 116 -99 116 -103 116 C-113.29465985 105.82826146 -115.16991302 87.43925575 -115.375 73.8125 C-115.37583888 64.34570567 -113.93952143 55.97113461 -111 47 C-110.54947266 45.60394531 -110.54947266 45.60394531 -110.08984375 44.1796875 C-107.68472949 37.53699098 -104.02459242 31.77549758 -100 26 C-99.42636719 25.1646875 -98.85273437 24.329375 -98.26171875 23.46875 C-88.75258555 10.59985882 -74.10347476 0.27185383 -58.5078125 -3.359375 C-55.96067964 -3.94648249 -55.96067964 -3.94648249 -53.49609375 -5.0390625 C-36.77366805 -11.47680385 -16.04500274 -5.81437167 0 0 Z " fill="#30477F" transform="translate(660,259)"/>
<path d="M0 0 C0.65669678 0.21358154 1.31339355 0.42716309 1.98999023 0.6472168 C6.62257368 2.24514736 6.62257368 2.24514736 7.75 4.5 C9.2043323 5.25801563 10.6897946 5.95675703 12.1875 6.625 C28.64239894 14.64088648 39.8088949 29.91955739 46.75 46.5 C49.43176404 54.67299518 51.41790382 62.87933671 51.75 71.5 C51.8015625 72.39589844 51.853125 73.29179687 51.90625 74.21484375 C52.40773377 89.78173566 48.43595939 105.47106091 39.75 118.5 C35.07397204 118.20774825 32.51701939 115.95105638 28.9765625 113.1796875 C15.09749466 102.70951351 -3.68382444 94.86379654 -21.25 94.5 C-22.47203125 94.46132813 -23.6940625 94.42265625 -24.953125 94.3828125 C-33.5707821 94.19271712 -41.78142167 94.75348265 -50.25 96.5 C-51.40757812 96.72171875 -52.56515625 96.9434375 -53.7578125 97.171875 C-68.3346707 100.45244181 -81.18178476 107.98236357 -92.28125 117.8828125 C-94.25 119.5 -94.25 119.5 -96.25 119.5 C-97.35802074 117.48127728 -98.46123073 115.45991375 -99.5625 113.4375 C-100.17738281 112.31214844 -100.79226563 111.18679688 -101.42578125 110.02734375 C-110.76288623 91.97294162 -111.61331497 70.81733178 -105.625 51.5 C-98.53875304 30.29959104 -83.88053758 13.46834516 -64.125 3.125 C-59.85636995 1.07915399 -55.8524625 -0.30966106 -51.19921875 -1.13671875 C-49.03109062 -1.49066877 -49.03109062 -1.49066877 -46.1875 -2.5625 C-31.46286233 -7.26185245 -14.38305172 -4.69046061 0 0 Z " fill="#30477F" transform="translate(403.25,256.5)"/>
<path d="M0 0 C8.84032237 6.64497565 15.16143507 14.77463178 16.7890625 26.03515625 C17.00952764 36.01907751 14.9780091 46.0441398 8.390625 53.7421875 C0.18939305 62.29211128 -7.50859366 66.37543121 -19.40625 66.76171875 C-30.87397904 66.59110429 -39.97420022 61.67075765 -47.91796875 53.515625 C-54.28485283 45.42715921 -56.57545664 35.48427277 -55.59375 25.38671875 C-53.06856188 13.70392068 -47.32096403 5.37586144 -37.33984375 -1.171875 C-25.1334855 -7.57891084 -11.72823411 -7.29482031 0 0 Z " fill="#FDFDFD" transform="translate(644.59375,274.61328125)"/>
<path d="M0 0 C3.25686402 2.22209664 5.97686589 4.69058113 8.625 7.625 C9.924375 8.98625 9.924375 8.98625 11.25 10.375 C17.60962116 18.39975856 17.66547198 28.65203367 16.91357422 38.47460938 C15.71314581 47.41993378 10.16324708 54.14490912 3.3828125 59.7109375 C-5.68578193 66.00500446 -14.42426512 67.93858296 -25.375 66.625 C-36.07051868 64.49430689 -43.64248895 57.78499731 -49.875 49.0625 C-54.96860525 40.71704508 -55.55027584 31.47912969 -53.91015625 21.9140625 C-51.45625531 12.47598196 -45.32893998 5.14234569 -37.375 -0.375 C-24.90232274 -6.57377032 -12.29119545 -7.35152633 0 0 Z " fill="#FDFDFD" transform="translate(393.375,274.375)"/>
<path d="M0 0 C3.85459425 0.17928345 6.08060249 1.04689599 9.4375 3 C12 6 12 6 12.15234375 8.33203125 C11.89825326 10.6045307 11.53265845 12.77736156 11 15 C10.34 15 9.68 15 9 15 C8.7620874 15.68247803 8.5241748 16.36495605 8.27905273 17.06811523 C6.73125573 20.61602405 4.69455063 23.71631615 2.53515625 26.91015625 C2.10118027 27.55947617 1.66720428 28.20879608 1.22007751 28.87779236 C-0.16147836 30.94228338 -1.54951547 33.00232716 -2.9375 35.0625 C-3.86693588 36.45090457 -4.79597643 37.83957388 -5.72460938 39.22851562 C-6.61683096 40.56013479 -7.50939755 41.89152288 -8.40234375 43.22265625 C-8.81806137 43.84253922 -9.23377899 44.46242218 -9.66209412 45.10108948 C-11.70156661 48.12705601 -13.77483573 51.10733124 -16 54 C-14.87505127 53.98952637 -13.75010254 53.97905273 -12.59106445 53.96826172 C-8.4071777 53.93199154 -4.22330479 53.90907398 -0.03930664 53.89013672 C1.76963643 53.88009513 3.57856333 53.8664592 5.38745117 53.84912109 C7.99141435 53.82479168 10.59516242 53.81349839 13.19921875 53.8046875 C14.00461594 53.79436493 14.81001312 53.78404236 15.63981628 53.77340698 C20.8040859 53.77238106 24.87086149 54.08377534 28.875 57.6875 C30.54345921 61.1171106 29.80885055 63.30656542 29 67 C27.68456321 69.52634621 26.37124195 71.78126307 24.8046875 74.13671875 C24.36575165 74.81691574 23.9268158 75.49711273 23.47457886 76.19792175 C21.99753555 78.47511658 20.50041346 80.73814338 19 83 C18.46556274 83.81196838 17.93112549 84.62393677 17.38049316 85.46051025 C13.92726982 90.705019 10.43995378 95.92560025 6.9296875 101.13208008 C5.09989807 103.84978275 3.2804228 106.5742194 1.4609375 109.29882812 C0.28968416 111.03948097 -0.88216813 112.77973097 -2.0546875 114.51953125 C-2.59326385 115.32880569 -3.13184021 116.13808014 -3.68673706 116.97187805 C-4.19471832 117.72083847 -4.70269958 118.46979889 -5.22607422 119.24145508 C-5.66668182 119.89712967 -6.10728943 120.55280426 -6.56124878 121.22834778 C-8.20665794 123.25447485 -9.78071196 124.6247182 -12 126 C-16.27601183 126 -18.46799456 125.36575374 -22 122.9375 C-24.29046314 119.57338226 -24.15942625 118.02817851 -23.54345703 114.09790039 C-22.67310598 110.7380951 -20.90778905 108.05009873 -18.9375 105.25 C-18.534104 104.65147217 -18.13070801 104.05294434 -17.71508789 103.4362793 C-16.88634753 102.20850979 -16.0516417 100.98474526 -15.2109375 99.76513672 C-13.41126139 97.14181851 -11.68129909 94.47317759 -9.9375 91.8125 C-6.63498568 86.87527419 -3.18835526 82.05830663 0.3359375 77.27734375 C1.59940679 75.54822968 2.81208779 73.78186832 4 72 C2.81446533 72.02094727 1.62893066 72.04189453 0.4074707 72.06347656 C-3.99995804 72.13599331 -8.40733426 72.18184215 -12.81518555 72.21972656 C-14.7212003 72.23981546 -16.62715362 72.26709194 -18.53295898 72.30175781 C-21.27603326 72.35039642 -24.01829125 72.37299579 -26.76171875 72.390625 C-27.61086349 72.41127014 -28.46000824 72.43191528 -29.33488464 72.45318604 C-33.3553899 72.45470354 -35.48200971 72.31117365 -38.99926758 70.19824219 C-41.26792954 67.70562079 -42.17594938 65.69867457 -42.375 62.30859375 C-41.53803171 57.15600772 -37.9838431 53.14167623 -35 49 C-33.68568439 47.0988724 -32.38226873 45.19050981 -31.07836914 43.28222656 C-29.67062169 41.22533876 -28.25387246 39.17487493 -26.8359375 37.125 C-24.12311513 33.19187051 -21.4585308 29.22829088 -18.8125 25.25 C-18.40257812 24.63495605 -17.99265625 24.01991211 -17.5703125 23.38623047 C-15.62174097 20.45790843 -13.68624315 17.52213102 -11.7734375 14.5703125 C-11.08507812 13.51585937 -10.39671875 12.46140625 -9.6875 11.375 C-9.09324219 10.45460938 -8.49898438 9.53421875 -7.88671875 8.5859375 C-5.82373009 5.75840438 -3.52843261 3.41408139 -1 1 C-0.67 0.67 -0.34 0.34 0 0 Z " fill="#FBFBFC" transform="translate(506,421)"/>
<path d="M0 0 C17.82 0 35.64 0 54 0 C54 11.88 54 23.76 54 36 C36.18 36 18.36 36 0 36 C0 24.12 0 12.24 0 0 Z " fill="#314880" transform="translate(598,466)"/>
<path d="M0 0 C17.82 0 35.64 0 54 0 C54 11.88 54 23.76 54 36 C36.18 36 18.36 36 0 36 C0 24.12 0 12.24 0 0 Z " fill="#314880" transform="translate(348,466)"/>
<path d="M0 0 C1.72251754 4.0845326 0.07280563 7.36973696 -1.4375 11.25 C-1.68048828 11.8996875 -1.92347656 12.549375 -2.17382812 13.21875 C-2.77285994 14.81616817 -3.38514321 16.40860594 -4 18 C-5.47522426 13.35304358 -4.41179883 9.55994793 -3 5 C-1.375 1.9375 -1.375 1.9375 0 0 Z " fill="#3E4E86" transform="translate(702,350)"/>
<path d="M0 0 C0 3 0 3 -2.5 5.6875 C-3.325 6.450625 -4.15 7.21375 -5 8 C-5.66 7.67 -6.32 7.34 -7 7 C-4.69 4.69 -2.38 2.38 0 0 Z " fill="#586590" transform="translate(701,394)"/>
<path d="M0 0 C-1.13719419 3.41158256 -2.04342944 4.11854601 -5 6 C-5.66 6 -6.32 6 -7 6 C-6.67 5.01 -6.34 4.02 -6 3 C-5.34 3 -4.68 3 -4 3 C-4 2.34 -4 1.68 -4 1 C-2 0 -2 0 0 0 Z " fill="#3B5289" transform="translate(569,250)"/>
</svg>
